<?xml version="1.0" standalone="no"?><!DOCTYPE svg PUBLIC "-//W3C//DTD SVG 1.1//EN"
  "http://www.w3.org/Graphics/SVG/1.1/DTD/svg11.dtd">
<svg t="1572022073588" class="icon" viewBox="0 0 1024 1024" version="1.1" xmlns="http://www.w3.org/2000/svg" p-id="1966"
     xmlns:xlink="http://www.w3.org/1999/xlink" width="200" height="200">
<defs>
  <style type="text/css"></style>
</defs>
<path
  d="M512 0C229.23 0 0 229.23 0 512s229.23 512 512 512 512-229.23 512-512S794.77 0 512 0z m262.544 381.417L463.417 692.544a35.84 35.84 0 0 1-13.049 8.338c-13.045 5.388-28.612 2.785-39.214-7.816l-161.22-161.22c-14.059-14.059-14.059-36.853 0-50.912 14.059-14.059 36.853-14.059 50.912 0l136.179 136.179 286.608-286.608c14.059-14.059 36.853-14.059 50.912 0 14.058 14.059 14.058 36.853-0.001 50.912z"
  fill="#1afa29" p-id="1967"></path>
</svg>
