<svg xmlns="http://www.w3.org/2000/svg" viewBox="0 0 1024 1024" id="el_rhUu0-Ku4">
  <use xlink:href="#el_eizYCb35lD_an_ySe42IYZT"></use>
  <use xlink:href="#el_WYv_dpm7Y4_an_w3F1o8m9o"></use>
  <symbol id="el_eizYCb35lD_an_ySe42IYZT">
    <g id="el_eizYCb35lD">
      <path style="fill: var(--primary-color)" id="el_OyoTnIyPHL"
            d="M 748.4 586.1 c -10.4 33.3 -27.4 63.6 -49.6 89.4 c -28 -18.4 -59.5 -32.7 -93.3 -42.4 c 5.6 -32 9.1 -67 9.9 -104 h 180.1 c 0.4 -6 0.6 -12 0.6 -18 c 0 -6.1 -0.3 -12.2 -0.6 -18.2 h -36.4 v 0.2 H 615.4 c -0.8 -37.1 -4.3 -72.1 -9.9 -104 c 33.8 -9.7 65.3 -24 93.3 -42.4 c 22.2 25.8 39.2 56 49.5 89.2 h 37.9 c -33.1 -123 -145.3 -213.5 -278.7 -213.5 c -133.4 0 -245.6 90.5 -278.7 213.5 h 37.9 c 10.3 -33.2 27.3 -63.4 49.4 -89.2 c 28 18.4 59.5 32.6 93.4 42.3 c -5.6 32 -9.1 67 -9.9 104.1 H 255.7 v -0.2 h -36.4 c -0.4 6 -0.6 12.1 -0.6 18.2 s 0.2 12.1 0.6 18 h 180.2 c 0.8 37.1 4.3 72.1 9.9 104.1 c -33.9 9.7 -65.4 23.9 -93.4 42.3 c -22.2 -25.8 -39.2 -56.1 -49.5 -89.4 h -37.9 c 33 123 145.3 213.7 278.8 213.7 s 245.7 -90.6 278.8 -213.7 h -37.8 Z m -75.6 -265.6 c -22.7 14 -47.9 25.2 -74.7 33.1 c -8.8 -35.9 -20.5 -66.1 -34.2 -88.5 c 41 9.3 78.2 28.7 108.9 55.4 Z M 435.6 493 c 0.8 -35.9 4.1 -67.9 9 -95.8 c 20.4 3.6 41.3 5.6 62.9 5.6 c 21.5 0 42.5 -1.9 62.9 -5.5 c 4.8 27.9 8.1 59.9 9 95.8 H 435.6 Z m 143.6 36.1 c -0.8 35.8 -4.1 67.9 -9 95.8 c -20.3 -3.6 -41.3 -5.5 -62.8 -5.5 s -42.5 2 -62.9 5.6 c -4.8 -27.9 -8.1 -59.9 -9 -95.8 h 143.7 Z m -71.8 -270.6 c 13.3 0 38.7 35.6 55.6 103.4 c -18 3.1 -36.5 4.8 -55.6 4.8 c -19 0 -37.6 -1.7 -55.5 -4.8 c 16.9 -67.8 42.3 -103.4 55.5 -103.4 Z m -165.3 62 c 30.7 -26.7 67.9 -46 108.8 -55.4 c -13.7 22.4 -25.4 52.6 -34.2 88.5 c -26.7 -7.9 -51.8 -19.1 -74.6 -33.1 Z m 0 381.2 c 22.7 -14 47.8 -25.2 74.6 -33.1 c 8.8 35.8 20.5 66.1 34.2 88.5 c -40.9 -9.4 -78 -28.7 -108.8 -55.4 Z m 165.3 62 c -13.3 0 -38.7 -35.6 -55.5 -103.4 c 18 -3.1 36.5 -4.8 55.5 -4.8 s 37.6 1.7 55.6 4.8 c -16.9 67.8 -42.3 103.4 -55.6 103.4 Z m 56.5 -6.6 c 13.7 -22.4 25.5 -52.6 34.2 -88.5 c 26.9 7.9 51.9 19 74.7 33 c -30.7 26.7 -67.9 46.1 -108.9 55.5 Z"/>
      <path fill="#ffffff" d="M 240.1 511.1 m -36.9 0 a 36.9 36.9 0 1 0 73.8 0 a 36.9 36.9 0 1 0 -73.8 0 Z"
            id="el_RqeyXSFpvZ"/>
      <path style="fill: var(--primary-color)"
            d="M 240.1 562.2 c -28.2 0 -51.1 -22.9 -51.1 -51.1 c 0 -28.2 22.9 -51.1 51.1 -51.1 s 51.1 22.9 51.1 51.1 c 0 28.2 -22.9 51.1 -51.1 51.1 Z m 0 -73.7 c -12.5 0 -22.6 10.1 -22.6 22.6 c 0 12.5 10.1 22.6 22.6 22.6 s 22.6 -10.1 22.6 -22.6 c 0 -12.5 -10.1 -22.6 -22.6 -22.6 Z"
            id="el_4wi8uyiqNQ"/>
      <path fill="#ffffff" d="M 781.4 511.1 m -36.9 0 a 36.9 36.9 0 1 0 73.8 0 a 36.9 36.9 0 1 0 -73.8 0 Z"
            id="el_srsusTjaB6"/>
      <path style="fill: var(--primary-color)"
            d="M 781.4 562.2 c -28.2 0 -51.1 -22.9 -51.1 -51.1 c 0 -28.2 22.9 -51.1 51.1 -51.1 c 28.2 0 51.1 22.9 51.1 51.1 c 0 28.2 -23 51.1 -51.1 51.1 Z m 0 -73.7 c -12.5 0 -22.6 10.1 -22.6 22.6 c 0 12.5 10.1 22.6 22.6 22.6 c 12.5 0 22.6 -10.1 22.6 -22.6 c 0 -12.5 -10.2 -22.6 -22.6 -22.6 Z"
            id="el_gNbRv4kHoL"/>
    </g>
  </symbol>
  <symbol id="el_WYv_dpm7Y4_an_w3F1o8m9o">
    <g id="el_WYv_dpm7Y4">
      <path style="fill: var(--secondary-color)"
            d="M 493.8 135 c 5.6 -0.2 11.3 -0.4 16.9 -0.4 c 207.8 0 376.8 169 376.8 376.8 c 0 116.7 -53.3 221.1 -136.8 290.3 l 10.7 27.8 c 94 -74.3 154.6 -189.2 154.6 -318.1 c 0 -223.5 -181.8 -405.3 -405.3 -405.3 c -9.3 0 -18.5 0.4 -27.7 1.1 l 10.8 27.8 Z M 504.6 888.1 c -205 -3.3 -370.7 -170.9 -370.7 -376.7 c 0 -108.4 46.1 -206.2 119.5 -275 l -11 -28.5 c -84 74.3 -137.1 182.8 -137.1 303.5 c 0 223.5 181.8 405.3 405.3 405.3 c 1.6 0 3.3 -0.1 4.9 -0.1 l -10.9 -28.5 Z"
            id="el_7HFRixLC8n"/>
      <path fill="#ffffff" d="M 510.7 902.8 m -36.9 0 a 36.9 36.9 0 1 0 73.8 0 a 36.9 36.9 0 1 0 -73.8 0 Z"
            id="el_HV2As1IFwv"/>
      <path style="fill: var(--primary-color)"
            d="M 510.7 954 c -28.2 0 -51.1 -22.9 -51.1 -51.1 c 0 -28.2 22.9 -51.1 51.1 -51.1 c 28.2 0 51.1 22.9 51.1 51.1 c 0 28.1 -22.9 51.1 -51.1 51.1 Z m 0 -73.8 c -12.5 0 -22.6 10.1 -22.6 22.6 c 0 12.5 10.1 22.6 22.6 22.6 s 22.6 -10.1 22.6 -22.6 c 0 -12.4 -10.1 -22.6 -22.6 -22.6 Z"
            id="el_inm9C4z1Ld"/>
      <path fill="#ffffff" d="M 510.7 119.3 m -36.9 0 a 36.9 36.9 0 1 0 73.8 0 a 36.9 36.9 0 1 0 -73.8 0 Z"
            id="el_e2fQrE-UnP"/>
      <path style="fill: var(--primary-color)"
            d="M 510.7 170.4 c -28.2 0 -51.1 -22.9 -51.1 -51.1 s 22.9 -51.1 51.1 -51.1 c 28.2 0 51.1 22.9 51.1 51.1 s -22.9 51.1 -51.1 51.1 Z m 0 -73.7 c -12.5 0 -22.6 10.1 -22.6 22.6 s 10.1 22.6 22.6 22.6 s 22.6 -10.1 22.6 -22.6 s -10.1 -22.6 -22.6 -22.6 Z"
            id="el_ajqN1R3h0b"/>
    </g>
  </symbol>
</svg>
