<svg xmlns="http://www.w3.org/2000/svg" xmlns:xlink="http://www.w3.org/1999/xlink" viewBox="0 0 200 200" id="good">
  <style type="text/css"></style>
  <path
    d="M512 0C229.23 0 0 229.23 0 512s229.23 512 512 512 512-229.23 512-512S794.77 0 512 0z m262.544 381.417L463.417 692.544a35.84 35.84 0 0 1-13.049 8.338c-13.045 5.388-28.612 2.785-39.214-7.816l-161.22-161.22c-14.059-14.059-14.059-36.853 0-50.912 14.059-14.059 36.853-14.059 50.912 0l136.179 136.179 286.608-286.608c14.059-14.059 36.853-14.059 50.912 0 14.058 14.059 14.058 36.853-0.001 50.912z"
    fill="#333333"></path>
</svg>
